<svg width="86" height="61" viewBox="0 0 86 61" fill="none" xmlns="http://www.w3.org/2000/svg">
  <g clip-path="url(#clip0)">
    <path d="M9.18115 51.7983H76.8184L43.0031 18.1926L9.18115 51.7983Z" fill="#61AE10"/>
    <path d="M7.64341 50.3491L12.9003 45.1785L11.1303 43.4264L7.85555 46.6803L1.92245 40.7852L0 42.7019L7.64341 50.3491Z" fill="black"/>
    <path d="M9.88421 36.0297L11.1835 37.3207L13.8882 34.6333L15.5057 36.1878L12.748 38.8752L14.465 40.5284L17.7928 37.2219L19.3506 38.7698L14.0473 44.0458L6.34424 36.392L11.6542 31.1226L13.212 32.6704L9.88421 36.0297Z" fill="black"/>
    <path d="M27.0007 31.1685L21.7968 29.6667C22.42 28.5272 22.1084 26.9793 21.0676 25.9452C19.9208 24.8057 17.9983 24.8584 16.699 26.1494L12.7944 30.0356L20.4975 37.6894L22.42 35.7265L16.1753 29.5218L17.4746 28.2835C17.9983 27.717 18.933 27.717 19.4501 28.2835C19.9738 28.7973 19.9738 29.6799 19.3971 30.2464L18.2502 31.3859L24.9125 33.2499L27.0007 31.1685Z" fill="black"/>
    <path d="M31.3229 19.128C30.2291 17.9885 28.8237 17.3693 27.4714 17.3167C26.066 17.3167 24.7137 17.8304 23.5138 19.0226C21.0676 21.4531 21.3328 24.6082 23.5668 26.8279C24.7137 27.9674 26.066 28.5866 27.4714 28.5866C28.8237 28.6393 30.2291 28.1189 31.4224 26.9333C33.8155 24.5028 33.61 21.3477 31.3229 19.128ZM29.9175 25.3788C29.1883 26.1034 28.3597 26.2615 27.4714 25.9453C26.8946 25.7411 26.2781 25.3261 25.7014 24.707C24.19 23.2579 23.8253 21.7627 25.0252 20.5705C25.7544 19.846 26.5831 19.6879 27.4714 19.9975C28.0415 20.2017 28.6182 20.6166 29.2414 21.2358C30.6932 22.6914 31.1108 24.1932 29.9175 25.3788Z" fill="black"/>
    <path d="M33.6629 15.0443L32.2576 10.697L34.4916 8.42456L36.4207 15.8149L39.4369 18.8185L37.4614 20.7813L34.4916 17.7778L27.3652 15.558L29.4998 13.4371L33.6099 14.9916L33.6629 15.0443Z" fill="black"/>
    <path d="M69.3013 41.3583L76.9513 33.7045L74.9228 31.689L67.2197 39.3427L69.3013 41.3583Z" fill="black"/>
    <path d="M39.8013 12.0933L45.7874 9.2544L41.4122 13.6478L43.1822 15.4525L50.8852 7.80531L48.4391 5.3748L42.6121 8.16758L45.5223 2.47662L43.0231 0L35.3267 7.64723L37.0966 9.4059L41.5183 5.01253L38.6545 10.9604L39.8013 12.0933Z" fill="black"/>
    <path d="M53.1727 13.1802L51.8733 14.4712L54.7835 17.4221L53.2257 18.97L50.2625 16.0784L48.5919 17.7317L52.1849 21.2951L50.6271 22.8496L45.105 17.3167L52.8081 9.71558L58.3235 15.1958L56.7657 16.7502L53.1727 13.1802Z" fill="black"/>
    <path d="M60.6172 32.7756L65.8144 37.9462L67.5844 36.1876L64.3096 32.9798L70.2361 27.0386L68.3136 25.1218L60.6172 32.7756Z" fill="black"/>
    <path d="M81.3196 38.0451L78.8801 46.16L84.1835 40.8906L86.0065 42.7019L78.3034 50.3492L75.9102 47.9187L77.9918 39.5996L72.7348 44.8163L70.9648 43.0576L78.668 35.4104L81.3196 38.0451Z" fill="black"/>
    <path d="M59.1586 31.3266L60.617 26.1033C61.7638 26.7225 63.3217 26.4656 64.4155 25.3788C65.5093 24.2393 65.5093 22.3291 64.21 21.0381L60.0469 16.9016L52.3438 24.5554L54.3193 26.5183L60.5109 20.3136L62.0224 21.8153C62.5925 22.3818 62.5925 23.2644 62.0754 23.7782C61.5583 24.3447 60.617 24.2986 60.0999 23.7782L58.6945 22.3818L57.0306 29.2057L59.1586 31.3266Z" fill="black"/>
    <path d="M16.036 60.9999H14.5776L12.622 55.7174L10.6664 60.9999H9.20801L12.0387 53.8928H13.1988L16.036 60.9999Z" fill="black"/>
    <path d="M16.5664 53.8928H20.4047V55.1707H17.8922V56.8108H20.2986V58.0886H17.8922V59.7221H20.4047V60.9999H16.5664V53.8928Z" fill="black"/>
    <path d="M21.5977 53.8928H23.5997C25.8933 53.8928 26.1651 55.4407 26.1651 56.1126C26.1651 57.0084 25.6812 58.3125 23.5997 58.3125H22.9235V60.9999H21.5977V53.8928ZM22.9235 57.0347H23.7057C24.0571 57.0347 24.8393 56.9754 24.8393 56.0994C24.8393 55.2233 24.0571 55.1641 23.7057 55.1641H22.9235V57.0347Z" fill="black"/>
    <path d="M29.4134 60.9999H27.9617L28.8036 59.1952L26.0591 53.8928H27.6633L29.546 57.6736L31.2033 53.8928H32.6551L29.4134 60.9999Z" fill="black"/>
    <path d="M33.968 53.8928H35.0286L38.0051 61.0065H36.5467L35.8109 59.1688H33.1791L32.4433 61.0065H30.9849L33.968 53.8928ZM35.3137 57.8844L34.4983 55.8096L33.6829 57.8844H35.3137Z" fill="black"/>
    <path d="M40.9946 53.8928H42.7911L44.7865 59.3269L46.7752 53.8928H48.5784V60.9999H47.2525V55.6778L45.3434 60.9999H44.223L42.3205 55.6778V60.9999H40.9946V53.8928Z" fill="black"/>
    <path d="M49.8911 53.8928H53.736V55.1707H51.2169V56.8108H53.63V58.0886H51.2169V59.7221H53.736V60.9999H49.8911V53.8928Z" fill="black"/>
    <path d="M54.9224 53.8928H56.9244C59.2181 53.8928 59.4899 55.4407 59.4899 56.1126C59.4899 57.0084 59.0059 58.3125 56.9244 58.3125H56.2482V60.9999H54.9224V53.8928ZM56.2482 57.0347H57.0304C57.3818 57.0347 58.164 56.9754 58.164 56.0994C58.164 55.2233 57.3818 55.1641 57.0304 55.1641H56.2482V57.0347Z" fill="black"/>
    <path d="M65.6815 60.9999H64.2165L62.2675 55.7174L60.3119 60.9999H58.8535L61.6841 53.8928H62.8442L65.6815 60.9999Z" fill="black"/>
    <path d="M66.2119 53.8928H70.0502V55.1707H67.5377V56.8108H69.9441V58.0886H67.5377V59.7221H70.0502V60.9999H66.2119V53.8928Z" fill="black"/>
    <path d="M71.2437 53.8928H72.5695V56.7449H75.1814V53.8928H76.5072V60.9999H75.1814V58.0227H72.5695V60.9999H71.2437V53.8928Z" fill="black"/>
  </g>
  <defs>
    <clipPath id="clip0">
      <rect width="86" height="61" fill="white"/>
    </clipPath>
  </defs>
</svg>
